<?xml version="1.0" encoding="UTF-8" standalone="no"?>
<!-- Generator: Adobe Illustrator 12.0.1, SVG Export Plug-In . SVG Version: 6.00 Build 51448)  -->

<svg
   xmlns:dc="http://purl.org/dc/elements/1.1/"
   xmlns:cc="http://creativecommons.org/ns#"
   xmlns:rdf="http://www.w3.org/1999/02/22-rdf-syntax-ns#"
   xmlns:svg="http://www.w3.org/2000/svg"
   xmlns="http://www.w3.org/2000/svg"
   xmlns:sodipodi="http://sodipodi.sourceforge.net/DTD/sodipodi-0.dtd"
   xmlns:inkscape="http://www.inkscape.org/namespaces/inkscape"
   version="1.1"
   id="Layer_1"
   width="128"
   height="128"
   viewBox="0 0 128 128"
   overflow="visible"
   enable-background="new 0 0 379.955 380.251"
   xml:space="preserve"
   sodipodi:version="0.32"
   inkscape:version="0.92.3 (2405546, 2018-03-11)"
   sodipodi:docname="filezilla.128px.svg"
   inkscape:output_extension="org.inkscape.output.svg.inkscape"
   style="overflow:visible"><metadata
   id="metadata2383"><rdf:RDF><cc:Work
       rdf:about=""><dc:format>image/svg+xml</dc:format><dc:type
         rdf:resource="http://purl.org/dc/dcmitype/StillImage" /><dc:title></dc:title></cc:Work></rdf:RDF></metadata><defs
   id="defs2381">
	
	
</defs><sodipodi:namedview
   inkscape:window-height="719"
   inkscape:window-width="1280"
   inkscape:pageshadow="2"
   inkscape:pageopacity="0.0"
   guidetolerance="10.0"
   gridtolerance="10.0"
   objecttolerance="10.0"
   borderopacity="1.0"
   bordercolor="#666666"
   pagecolor="#ffffff"
   id="base"
   inkscape:zoom="2.8339983"
   inkscape:cx="4.9926895"
   inkscape:cy="63.269349"
   inkscape:window-x="110"
   inkscape:window-y="110"
   inkscape:current-layer="Layer_1"
   showgrid="false"
   fit-margin-top="0"
   fit-margin-left="0"
   fit-margin-right="0"
   fit-margin-bottom="0"
   inkscape:window-maximized="0" />
<g
   id="g2305"
   transform="matrix(0.73244143,0,0,0.73242048,-73.663099,-75.258402)">
		<linearGradient
   y2="258.86539"
   x2="187.94679"
   y1="123.8594"
   x1="187.94679"
   gradientUnits="userSpaceOnUse"
   id="XMLID_2_">
			<stop
   id="stop2308"
   style="stop-color:#BF0000"
   offset="0" />
			<stop
   id="stop2310"
   style="stop-color:#8F0000"
   offset="1" />
		</linearGradient>
		<path
   style="fill:url(#XMLID_2_)"
   id="path2312"
   d="m 100.572,108.605 v 7.715 c 3.226,0 5.851,2.625 5.851,5.85 0,3.227 -2.625,5.852 -5.851,5.852 v 7.715 c 3.226,0 5.851,2.625 5.851,5.85 0,3.227 -2.625,5.852 -5.851,5.852 v 7.715 c 3.226,0 5.851,2.625 5.851,5.854 0,3.229 -2.625,5.854 -5.851,5.854 v 7.715 c 3.226,0 5.851,2.623 5.851,5.85 0,3.227 -2.625,5.852 -5.851,5.852 v 7.715 c 3.226,0 5.851,2.623 5.851,5.85 0,3.227 -2.625,5.852 -5.851,5.852 v 7.715 c 3.226,0 5.851,2.623 5.851,5.85 0,3.227 -2.625,5.852 -5.851,5.852 v 7.715 c 3.226,0 5.851,2.623 5.851,5.85 0,3.227 -2.625,5.852 -5.851,5.852 v 7.715 c 3.226,0 5.851,2.623 5.851,5.85 0,3.227 -2.625,5.852 -5.851,5.852 v 7.719 c 1.54,0 3.048,0.623 4.138,1.713 1.088,1.088 1.713,2.596 1.713,4.137 h 7.715 c 0,-3.227 2.625,-5.85 5.851,-5.85 3.226,0 5.851,2.623 5.851,5.85 h 7.715 c 0,-3.227 2.625,-5.85 5.851,-5.85 3.226,0 5.851,2.623 5.851,5.85 h 7.715 c 0,-3.227 2.625,-5.85 5.851,-5.85 3.226,0 5.851,2.623 5.851,5.85 h 7.715 c 0,-3.227 2.625,-5.85 5.851,-5.85 3.226,0 5.851,2.623 5.851,5.85 h 7.715 c 0,-3.227 2.625,-5.85 5.851,-5.85 3.226,0 5.851,2.623 5.851,5.85 h 7.715 c 0,-3.227 2.625,-5.85 5.851,-5.85 3.226,0 5.851,2.623 5.851,5.85 h 7.715 c 0,-3.227 2.625,-5.85 5.851,-5.85 3.226,0 5.851,2.623 5.851,5.85 h 7.715 c 0,-3.227 2.625,-5.85 5.851,-5.85 3.226,0 5.851,2.623 5.851,5.85 h 7.719 c 0,-1.541 0.625,-3.049 1.715,-4.137 1.088,-1.09 2.596,-1.713 4.137,-1.713 v -7.715 c -3.227,0 -5.852,-2.625 -5.852,-5.852 0,-3.227 2.625,-5.85 5.852,-5.85 v -7.715 c -3.227,0 -5.852,-2.625 -5.852,-5.852 0,-3.227 2.625,-5.85 5.852,-5.85 v -7.715 c -3.227,0 -5.852,-2.625 -5.852,-5.852 0,-3.227 2.625,-5.85 5.852,-5.85 V 205.7 c -3.227,0 -5.852,-2.625 -5.852,-5.852 0,-3.227 2.625,-5.85 5.852,-5.85 v -7.715 c -3.227,0 -5.852,-2.625 -5.852,-5.852 0,-3.227 2.625,-5.85 5.852,-5.85 v -7.715 c -3.227,0 -5.852,-2.625 -5.852,-5.854 0,-3.229 2.625,-5.854 5.852,-5.854 v -7.715 c -3.227,0 -5.852,-2.625 -5.852,-5.852 0,-3.225 2.625,-5.85 5.852,-5.85 v -7.715 c -3.227,0 -5.852,-2.625 -5.852,-5.852 0,-3.225 2.625,-5.85 5.852,-5.85 v -7.719 c -1.541,0 -3.049,-0.625 -4.137,-1.713 -1.09,-1.09 -1.715,-2.598 -1.715,-4.139 h -7.715 c 0,3.227 -2.625,5.852 -5.851,5.852 -3.226,0 -5.851,-2.625 -5.851,-5.852 h -7.715 c 0,3.227 -2.625,5.852 -5.851,5.852 -3.226,0 -5.851,-2.625 -5.851,-5.852 h -7.715 c 0,3.227 -2.625,5.852 -5.851,5.852 -3.226,0 -5.851,-2.625 -5.851,-5.852 h -7.715 c 0,3.227 -2.625,5.852 -5.851,5.852 -3.226,0 -5.851,-2.625 -5.851,-5.852 h -7.715 c 0,3.227 -2.625,5.852 -5.851,5.852 -3.226,0 -5.851,-2.625 -5.851,-5.852 h -7.715 c 0,3.227 -2.625,5.852 -5.851,5.852 -3.226,0 -5.851,-2.625 -5.851,-5.852 h -7.715 c 0,3.227 -2.625,5.852 -5.851,5.852 -3.226,0 -5.851,-2.625 -5.851,-5.852 h -7.715 c 0,3.227 -2.625,5.852 -5.851,5.852 -3.226,0 -5.851,-2.625 -5.851,-5.852 h -7.719 c 0,1.541 -0.625,3.049 -1.713,4.139 -1.09,1.088 -2.598,1.713 -4.138,1.713 z"
   inkscape:connector-curvature="0" />
		<path
   style="fill:#ffffff"
   id="path2314"
   d="m 249.444,172.681 h -87.205 l 4.551,-21.293 h 53.15 l 4.876,-22.918 h -76.394 l -24.056,113.454 h 23.081 l 10.563,-49.576 h 55.361 l -48.105,47.625 8.452,14.953 c 3.9,-2.6 10.239,-2.926 14.628,-2.926 7.803,0 15.442,2.602 23.404,2.602 7.301,0 14.775,-0.488 26.967,-6.34 l 4.26,-19.992 c -8.291,3.412 -20.558,6.664 -31.227,6.664 -4.386,0 -8.45,-0.975 -12.676,-1.625 l 46.631,-45.348 z"
   inkscape:connector-curvature="0" />
	</g>




















</svg>